<?xml version="1.0" encoding="utf-8"?>
<!-- Generator: Adobe Illustrator 25.0.1, SVG Export Plug-In . SVG Version: 6.00 Build 0)  -->
<svg version="1.1" id="Capa_1" xmlns="http://www.w3.org/2000/svg" xmlns:xlink="http://www.w3.org/1999/xlink" x="0px" y="0px"
	 viewBox="0 0 192.7 211.77" style="enable-background:new 0 0 192.7 211.77;" xml:space="preserve">
<style type="text/css">
	.st0{fill:#1F222B;}
	.st1{fill:#F5EACC;}
	.st2{fill:#F5D38E;}
	.st3{fill:none;stroke:#1F222B;stroke-miterlimit:10;}
	.st4{fill:#F28D57;}
	.st5{fill:#EE7557;}
	.st6{fill:#579F83;}
	.st7{fill:#FDD5A0;}
	.st8{fill:#76BF9A;}
</style>
<g>
	<path class="st0" d="M156.45,66.46c0.51-1.5,2.14-2.31,3.65-1.8c1.5,0.51,2.31,2.14,1.8,3.65l-6.55,19.35
		c7.09,1.28,13.96,1.29,19.53-0.15c2.4-0.62,4.54-1.51,6.31-2.69c-1.23-3.52-2.59-6.98-4.02-10.4c-2.54-6.07-2.27-10.47-0.71-13.1
		c0.88-1.48,2.13-2.46,3.58-2.93c1.39-0.46,2.92-0.44,4.42,0.06c2.95,0.98,5.9,3.91,7.13,8.64c1.38,5.33,1.23,9.85-0.1,13.62
		c-0.81,2.28-2.04,4.27-3.62,5.96c0.65,2.04,1.25,4.11,1.79,6.2c1.88,7.24,3.05,14.74,3.05,22.54c0,26.6-10.78,50.69-28.22,68.13
		c-17.44,17.44-41.52,28.22-68.13,28.22c-26.61,0-50.69-10.79-68.13-28.22C10.79,166.11,0,142.02,0,115.42
		c0-5.97,0.55-11.85,1.61-17.58C2.69,92,4.29,86.34,6.38,80.91c0.57-1.48,2.22-2.22,3.7-1.65c1.48,0.57,2.22,2.22,1.65,3.7
		c-1.95,5.09-3.46,10.41-4.48,15.92c-0.98,5.33-1.5,10.86-1.5,16.55c0,25.02,10.14,47.66,26.53,64.06
		c16.39,16.39,39.04,26.53,64.06,26.53c25.02,0,47.66-10.14,64.06-26.53c16.39-16.39,26.53-39.04,26.53-64.06
		c0-7.33-1.09-14.35-2.85-21.1c-0.34-1.3-0.7-2.59-1.08-3.88c-2,1.13-4.25,2-6.7,2.63c-6.58,1.7-14.63,1.66-22.83,0.09l-0.51,1.5
		c4.59,7.82,7,17.25,6.98,26.35c-0.02,10.22-3.08,20.1-9.5,26.96c-1.43,1.53-3.05,2.93-4.84,4.15c-1.8,1.22-3.6,1.84-5.29,1.88
		c-1.93,0.05-3.64-0.61-5.03-1.97c-1.21-1.18-2.11-2.87-2.59-5.03c-0.73-3.32-0.5-7.99,1.19-13.86l0.08-0.29l2.98-8.8
		c-3.86,2.41-8.13,3.72-12.17,4.03c-2.95,0.23-5.8-0.07-8.31-0.87c-2.65-0.84-4.94-2.23-6.62-4.15c-0.64-0.73-1.18-1.52-1.62-2.37
		c-0.63,0.84-1.3,1.65-1.99,2.41c-3.33,3.63-7.31,5.99-11.72,4.68l-0.34-0.11c-2.35-0.83-4.11-2.73-4.92-5.48
		c-0.67-2.29-0.65-5.21,0.33-8.55l0.04-0.14c0.09-0.31,0.22-0.69,0.38-1.14l4.34-12.35c1.51-4.3,1.46-7.36,0.44-9.08
		c-0.35-0.59-0.85-1-1.43-1.2c-0.7-0.24-1.59-0.24-2.59,0.03c-3.35,0.89-7.43,4.36-10.91,10.91l-9.31,26.5
		c-0.52,1.5-2.16,2.29-3.66,1.77c-1.5-0.52-2.29-2.16-1.77-3.66l0.18-0.51c-3.64,3.11-7.61,5.36-11.52,6.66v0.01
		c-3.8,1.26-7.6,1.64-11.07,1.07c-3.62-0.59-6.87-2.2-9.39-4.91c-4.17-4.47-6.26-11.86-4.55-22.44c0.58-3.57,1.52-7.37,2.81-11.25
		c-2.03-0.89-3.94-1.98-5.68-3.26c-3.51-2.6-6.3-5.97-7.96-9.96c-3.51-8.46-1.96-19.53,8.65-31.7c3.26-3.74,7.07-7.13,11.05-10.13
		c4.64-3.49,9.56-6.49,14.15-8.89c1.4-0.73,3.14-0.19,3.87,1.22c0.73,1.4,0.19,3.14-1.22,3.87c-4.3,2.25-8.94,5.07-13.34,8.39
		c-3.71,2.79-7.22,5.92-10.19,9.32c-8.92,10.22-10.39,19.14-7.66,25.71c1.25,3,3.38,5.56,6.07,7.55c1.3,0.96,2.72,1.79,4.24,2.48
		c0.26-0.65,0.54-1.3,0.82-1.96c2.63-6.08,6.03-12.18,10.09-17.79c6.62-9.15,13.64-12.52,19.28-12.2c2.43,0.14,4.62,0.94,6.44,2.27
		c1.8,1.32,3.22,3.12,4.14,5.28c2.19,5.12,1.58,12.3-3.54,19.24C62.36,94.83,49.15,98.23,37.9,95.9l-0.86-0.19
		c-1.19,3.58-2.06,7.07-2.59,10.34c-1.39,8.62,0.06,14.37,3.09,17.62c1.61,1.73,3.73,2.77,6.11,3.16c2.54,0.41,5.4,0.11,8.34-0.87
		l0,0.01c7.9-2.62,16.09-9.94,20.28-21.05l2.2-6.27c0.02-0.08,0.05-0.16,0.08-0.23l4.92-14.02c2.51-7.14,4.64-14.47,6.41-21.79
		c1.88-7.76,3.35-15.56,4.45-23.15c0.22-1.57,1.68-2.67,3.25-2.44c1.57,0.22,2.67,1.68,2.44,3.25c-1.11,7.71-2.63,15.68-4.56,23.69
		c-1.8,7.46-3.97,14.92-6.52,22.19c1.49-0.94,2.96-1.6,4.36-1.97c2.12-0.56,4.13-0.52,5.89,0.08c1.88,0.64,3.44,1.89,4.51,3.7
		c1.84,3.09,2.18,7.85,0.06,13.92l-4.34,12.35c-0.08,0.24-0.18,0.54-0.29,0.89l-0.04,0.11c-0.65,2.24-0.71,4.05-0.33,5.34
		c0.26,0.88,0.71,1.45,1.28,1.65l0.1,0.03c1.81,0.53,3.9-0.93,5.85-3.06c2.31-2.52,4.32-5.89,5.75-8.59
		c0.06-0.19,0.12-0.38,0.19-0.57l3.42-9.72c0.67-1.91,1.49-3.78,2.42-5.52c0.92-1.7,1.96-3.31,3.11-4.75
		c4.54-5.66,9.6-7.3,13.64-6.63c2.41,0.4,4.45,1.63,5.86,3.35c1.43,1.75,2.21,3.99,2.08,6.4c-0.22,3.88-2.82,8.16-9,11.19
		c-2.7,1.32-5.69,2.45-8.58,3.38c-2.36,0.76-4.68,1.41-6.73,1.92l-0.79,2.26l0,0c-0.04,0.28-0.13,0.56-0.26,0.82
		c-0.78,2.82-0.28,5.01,1.05,6.52c0.95,1.09,2.35,1.91,4.03,2.44c1.82,0.57,3.93,0.79,6.15,0.62c6.2-0.48,13.1-3.96,16.91-11.01
		l5.4-15.95c-1.43-2.1-3.07-4.04-4.9-5.75c-1.16-1.08-1.23-2.9-0.15-4.06c0.8-0.86,2.01-1.12,3.06-0.75
		c1.67,0.59,3.35,1.11,5.03,1.57L156.45,66.46L156.45,66.46z M39.67,88.82l-0.61,1.45c9.28,1.92,20.17-0.87,27.13-10.33
		c3.78-5.13,4.35-10.16,2.89-13.59c-0.52-1.21-1.28-2.2-2.23-2.89c-0.93-0.68-2.08-1.1-3.38-1.17c-3.89-0.22-9.02,2.5-14.31,9.82
		C45.33,77.4,42.13,83.12,39.67,88.82L39.67,88.82z M116.8,102.21l-0.31,0.89c0.87-0.25,1.76-0.53,2.66-0.82
		c2.68-0.87,5.42-1.89,7.82-3.07c4-1.96,5.66-4.34,5.78-6.35c0.05-0.93-0.24-1.79-0.77-2.44c-0.55-0.68-1.38-1.16-2.37-1.33
		c-2.21-0.37-5.19,0.79-8.21,4.56c-0.92,1.15-1.77,2.46-2.53,3.87C118.06,99.02,117.37,100.61,116.8,102.21L116.8,102.21z
		 M150.41,102.25l-10.99,32.48c-1.41,4.89-1.65,8.58-1.11,11.03c0.23,1.02,0.57,1.74,0.99,2.15c0.24,0.24,0.55,0.36,0.89,0.35
		c0.6-0.01,1.35-0.31,2.21-0.89c1.4-0.95,2.69-2.07,3.85-3.31c5.38-5.76,7.95-14.22,7.97-23.05
		C154.23,114.63,152.93,108.1,150.41,102.25L150.41,102.25z M185.56,79.99c0.19-0.39,0.36-0.79,0.5-1.2
		c0.96-2.73,1.04-6.13-0.03-10.27c-0.68-2.63-2.06-4.18-3.37-4.61c-0.33-0.11-0.61-0.13-0.82-0.06c-0.16,0.05-0.31,0.18-0.43,0.39
		c-0.74,1.25-0.66,3.82,1.07,7.97C183.55,74.77,184.58,77.36,185.56,79.99z"/>
	<path class="st0" d="M118.23,62.33c-1.03-0.16-1.74-1.12-1.59-2.15c0.16-1.03,1.12-1.74,2.15-1.59c0.04,0.01,14.11,2.06,25.46,8.86
		c0.43-1.31,0.89-2.58,1.35-3.8c-1.81-1.13-3.7-2.12-5.59-2.99c-2.58-1.19-5.19-2.16-7.62-2.94c-0.99-0.32-1.54-1.38-1.22-2.37
		c0.32-0.99,1.38-1.54,2.37-1.22c2.54,0.82,5.29,1.85,8.03,3.11c1.84,0.84,3.66,1.79,5.41,2.84l0.37-0.92l0.54-1.35
		c-1.93-1.15-3.91-2.42-5.96-3.74c-10.66-6.83-23.23-14.87-37.14-12.02c-1.36,0.28-2.69-0.6-2.96-1.96
		c-0.28-1.36,0.6-2.69,1.96-2.96c15.91-3.26,29.41,5.38,40.86,12.71c3.11,1.99,6.06,3.88,8.8,5.35c6.47,3.47,11.63,2.88,15,0.33
		c1.56-1.18,2.77-2.78,3.55-4.59c0.8-1.84,1.18-3.88,1.07-5.91c-0.22-4.01-2.4-7.97-7-10.12c-1.61,2.43-3.75,4.75-6.49,6.87
		c-1.1,0.85-2.68,0.65-3.53-0.45c-0.85-1.1-0.65-2.68,0.45-3.53c6.57-5.07,8.92-11.42,8.12-17.15c-0.39-2.75-1.49-5.37-3.21-7.64
		c-1.73-2.3-4.09-4.25-6.96-5.66c-7.39-3.61-18.1-3.45-30.29,4.01l-2.4,1.49c-7.28,4.55-14.72,9.2-26.54,9.65
		c-1.39,0.05-2.55-1.04-2.6-2.42s1.04-2.55,2.42-2.6c3.21-0.12,6.09-0.61,8.73-1.36c-10.75-5.43-19.75-4.71-26.08-0.85
		c-3.44,2.1-6.11,5.12-7.85,8.58c-1.74,3.45-2.55,7.34-2.26,11.15c0.54,7.26,5.13,14.3,14.91,17.68c1.31,0.45,2.01,1.88,1.56,3.19
		c-0.45,1.31-1.88,2.01-3.19,1.56c-11.98-4.13-17.62-12.93-18.3-22.05c-0.35-4.72,0.64-9.52,2.79-13.79
		c2.15-4.27,5.46-8.01,9.72-10.61c8.48-5.17,20.65-5.86,34.86,2.82c3.28-1.54,6.24-3.39,9.18-5.23l2.44-1.51
		c13.87-8.5,26.35-8.53,35.12-4.25c3.58,1.75,6.56,4.23,8.77,7.17c2.23,2.96,3.67,6.38,4.17,9.97c0.48,3.43,0.12,7.01-1.22,10.48
		c6.37,3.04,9.4,8.64,9.71,14.33c0.15,2.8-0.37,5.63-1.48,8.17c-1.13,2.58-2.87,4.88-5.13,6.6c-4.58,3.46-11.21,4.55-19.16,0.73
		l-0.31,0.77c-1.92,4.82-4.59,11.5-5.2,17.37c-0.14,1.38-1.38,2.39-2.76,2.25c-0.37-0.04-0.71-0.15-1.01-0.33
		c-7.01-4.05-14.55-6.92-22.32-8.6l-0.01,0c-7.89-1.7-15.99-2.17-23.99-1.39c-1.38,0.13-2.61-0.88-2.74-2.27
		c-0.13-1.38,0.88-2.61,2.27-2.74c8.53-0.83,17.16-0.33,25.53,1.47c7.11,1.54,14.05,4.02,20.6,7.42c0.21-1.01,0.45-2.02,0.72-3.02
		C132.35,64.4,118.28,62.34,118.23,62.33L118.23,62.33z"/>
	<path class="st0" d="M98.7,157.55c3.84,10.24,13.45,16.35,24.07,18.26c5.33,0.96,10.9,0.86,16.13-0.29
		c5.18-1.14,10.01-3.33,13.92-6.55c4.28-3.53,7.46-8.36,8.76-14.49c-1.5,1.9-3.21,3.53-5.07,4.89c-3.23,2.36-6.87,3.9-10.57,4.64
		c-3.72,0.74-7.52,0.68-11.03-0.15c-4.77-1.14-9.03-3.71-11.93-7.66c-3.15-4.3-5.93-7.98-9.23-10.48
		c-3.15-2.38-6.94-3.78-12.34-3.78H91.29c-5.41,0-9.2,1.4-12.34,3.78c-3.3,2.5-6.07,6.18-9.23,10.48c-2.9,3.95-7.16,6.52-11.93,7.66
		c-3.51,0.84-7.31,0.9-11.03,0.15c-3.7-0.74-7.35-2.28-10.57-4.64c-1.86-1.36-3.57-2.99-5.07-4.89c1.3,6.14,4.48,10.96,8.76,14.49
		c3.91,3.22,8.74,5.41,13.92,6.55c5.23,1.16,10.81,1.25,16.13,0.29c10.62-1.91,20.23-8.02,24.07-18.26c0.48-1.3,1.93-1.96,3.23-1.48
		C97.94,156.34,98.46,156.89,98.7,157.55L98.7,157.55z M121.89,180.76c-10.48-1.89-20.13-7.41-25.54-16.54
		c-5.41,9.13-15.06,14.65-25.54,16.54c-5.97,1.08-12.23,0.97-18.1-0.33c-5.93-1.31-11.49-3.83-16.03-7.57
		c-7.86-6.49-12.62-16.54-10.9-30.15c0.05-1.1,0.82-2.08,1.94-2.34c1.35-0.32,2.71,0.52,3.03,1.87c1.41,5.9,4.53,10.23,8.41,13.08
		c2.6,1.91,5.56,3.15,8.58,3.76c3.01,0.6,6.07,0.56,8.88-0.12c3.65-0.87,6.89-2.79,9.04-5.73c3.4-4.63,6.4-8.61,10.25-11.52
		c4-3.03,8.73-4.81,15.38-4.81h10.12c6.64,0,11.38,1.78,15.38,4.81c3.85,2.92,6.85,6.89,10.25,11.52c2.15,2.93,5.38,4.86,9.04,5.73
		c2.82,0.67,5.88,0.72,8.88,0.12c3.02-0.6,5.98-1.85,8.58-3.76c3.88-2.84,7-7.18,8.41-13.08l0.01,0c0.23-0.99,1.06-1.77,2.12-1.91
		c1.38-0.18,2.64,0.79,2.82,2.17c1.8,13.72-2.97,23.84-10.87,30.36c-4.54,3.74-10.1,6.27-16.03,7.57
		C134.12,181.73,127.86,181.84,121.89,180.76L121.89,180.76z"/>
</g>
</svg>
